<svg xmlns="http://www.w3.org/2000/svg" xmlns:xlink="http://www.w3.org/1999/xlink" width="50" height="50" viewBox="0 0 50 50">
  <defs>
    <linearGradient id="linear-gradient" x1="0.5" x2="0.5" y2="1" gradientUnits="objectBoundingBox">
      <stop offset="0" stop-color="#5a34fa"/>
      <stop offset="1" stop-color="#fa026b"/>
    </linearGradient>
  </defs>
  <g id="디스코드" transform="translate(-358 -484)">
    <g id="그룹_31539" data-name="그룹 31539" transform="translate(358 484)">
      <path id="타원_134" data-name="타원 134" d="M25,1a24.007,24.007,0,0,0-9.342,46.114A24.006,24.006,0,0,0,34.342,2.886,23.849,23.849,0,0,0,25,1m0-1A25,25,0,1,1,0,25,25,25,0,0,1,25,0Z" fill="url(#linear-gradient)"/>
      <path id="discord-brands" d="M44.854,31.5h0a.592.592,0,0,1,.1.009,24.72,24.72,0,0,1,6.09,1.888.575.575,0,0,1,.257.224,26.345,26.345,0,0,1,3.7,7.941,25.382,25.382,0,0,1,.712,9.073.592.592,0,0,1-.241.423,24.69,24.69,0,0,1-7.488,3.777.593.593,0,0,1-.656-.223,20.076,20.076,0,0,1-1.535-2.5.593.593,0,0,1,.03-.6,17.653,17.653,0,0,1-5.143.767,17.851,17.851,0,0,1-5.189-.775.593.593,0,0,1,.039.6,17.935,17.935,0,0,1-1.542,2.508l0,0a.595.595,0,0,1-.646.212,24.782,24.782,0,0,1-7.482-3.78l-.01-.007a.6.6,0,0,1-.228-.41v-.007a25.3,25.3,0,0,1,4.415-17.018.582.582,0,0,1,.253-.216,24.654,24.654,0,0,1,6.094-1.889h.007a.594.594,0,0,1,.6.286l0,.007c.225.4.434.808.624,1.225a22.849,22.849,0,0,1,6.1,0c.188-.414.392-.823.611-1.22A.591.591,0,0,1,44.854,31.5Zm-7.84,2.627-.152-.356c-.178-.416-.376-.827-.592-1.226a23.653,23.653,0,0,0-5.461,1.715,24.308,24.308,0,0,0-4.206,16.1,23.773,23.773,0,0,0,6.755,3.433,16.955,16.955,0,0,0,1.08-1.737A16.588,16.588,0,0,1,32.5,51.1a.594.594,0,0,1-.062-.987c.16-.12.307-.235.439-.344a.6.6,0,0,1,.617-.083,17.225,17.225,0,0,0,7.191,1.6,16.937,16.937,0,0,0,7.143-1.6.59.59,0,0,1,.622.078c.147.121.294.237.438.343a.594.594,0,0,1-.05.986l0,0a15.594,15.594,0,0,1-1.936.956,19.1,19.1,0,0,0,1.078,1.737,23.692,23.692,0,0,0,6.764-3.432,24.345,24.345,0,0,0-.7-8.537,25.314,25.314,0,0,0-3.511-7.562,23.722,23.722,0,0,0-5.456-1.714c-.211.4-.406.81-.583,1.224l-.152.357-.383-.058a21.852,21.852,0,0,0-6.559,0Zm-1.207,6.712a2.994,2.994,0,0,1,2.14.915,3.569,3.569,0,0,1,1,2.545,3.152,3.152,0,1,1-3.137-3.46Zm0,5.914a2.317,2.317,0,0,0,2.137-2.457v-.007a2.563,2.563,0,0,0-.71-1.832,2,2,0,0,0-1.428-.617,2.481,2.481,0,0,0,0,4.914Zm9.752-5.914a2.994,2.994,0,0,1,2.14.915,3.569,3.569,0,0,1,1,2.545,3.636,3.636,0,0,1-.889,2.417,2.978,2.978,0,0,1-2.248,1.036,3.473,3.473,0,0,1,0-6.914Zm0,5.914a1.991,1.991,0,0,0,1.5-.7,2.638,2.638,0,0,0,.638-1.758v-.007a2.563,2.563,0,0,0-.71-1.832,2,2,0,0,0-1.428-.617,2.481,2.481,0,0,0,0,4.914Z" transform="translate(-15.674 -18.413)" fill="url(#linear-gradient)"/>
    </g>
  </g>
</svg>
