<svg xmlns="http://www.w3.org/2000/svg" xmlns:xlink="http://www.w3.org/1999/xlink" width="110.053" height="122.161" viewBox="0 0 110.053 122.161">
  <defs>
    <linearGradient id="linear-gradient" x1="0.272" y1="0.134" x2="0.772" y2="0.92" gradientUnits="objectBoundingBox">
      <stop offset="0" stop-color="#3812ba"/>
      <stop offset="1" stop-color="#f8076d"/>
    </linearGradient>
  </defs>
  <g id="그룹_389" data-name="그룹 389" transform="translate(3.957 -14.854)">
    <path id="패스_183" data-name="패스 183" d="M102.106,24.722,62.974,2.129a15.9,15.9,0,0,0-15.895,0L7.947,24.722A15.894,15.894,0,0,0,0,38.487V83.673A15.9,15.9,0,0,0,7.947,97.438l39.132,22.593a15.9,15.9,0,0,0,15.895,0l39.132-22.593a15.894,15.894,0,0,0,7.947-13.765V38.487a15.894,15.894,0,0,0-7.947-13.765" transform="translate(-3.957 14.855)" fill="url(#linear-gradient)"/>
    <path id="패스_99158" data-name="패스 99158" d="M-57.848-7.434h5.035c4.3,0,6.964-2.645,6.964-6.486s-2.661-6.5-6.964-6.5h-5.035Zm2.9-2.566v-7.856h2.183a3.65,3.65,0,0,1,4.016,3.936c0,2.5-1.53,3.92-4.016,3.92Zm10.836-10.422V-7.434h2.9V-20.421Zm14.549,0-3.522,9.561-3.538-9.561h-3.283l5.131,12.987h3.123l5.131-12.987Zm4.35,12.987h9.8V-9.951h-6.9V-12.74h6.2v-2.518h-6.2V-17.9h6.756v-2.518h-9.657ZM-9.007-20.421V-7.434h2.9V-20.421ZM-3.812-7.434h2.9V-15.4L5.574-7.593H8V-20.58H5.1v7.968L-1.39-20.421H-3.812Z" transform="translate(75.89 90.434)" fill="#fff"/>
  </g>
</svg>
