<svg xmlns="http://www.w3.org/2000/svg" xmlns:xlink="http://www.w3.org/1999/xlink" width="50" height="50" viewBox="0 0 50 50">
  <defs>
    <linearGradient id="linear-gradient" x1="0.5" x2="0.5" y2="1" gradientUnits="objectBoundingBox">
      <stop offset="0" stop-color="#5a34fa"/>
      <stop offset="1" stop-color="#fa026b"/>
    </linearGradient>
  </defs>
  <g id="인스타" transform="translate(-148 -484)">
    <g id="그룹_31540" data-name="그룹 31540" transform="translate(147.99 484)">
      <path id="타원_134" data-name="타원 134" d="M25,1a24.007,24.007,0,0,0-9.342,46.114A24.006,24.006,0,0,0,34.342,2.886,23.849,23.849,0,0,0,25,1m0-1A25,25,0,1,1,0,25,25,25,0,0,1,25,0Z" transform="translate(0.01)" fill="url(#linear-gradient)"/>
      <path id="사각형_886" data-name="사각형 886" d="M6,1A5.006,5.006,0,0,0,1,6V17a5.006,5.006,0,0,0,5,5H17a5.006,5.006,0,0,0,5-5V6a5.006,5.006,0,0,0-5-5H6M6,0H17a6,6,0,0,1,6,6V17a6,6,0,0,1-6,6H6a6,6,0,0,1-6-6V6A6,6,0,0,1,6,0Z" transform="translate(14.01 14)" fill="url(#linear-gradient)"/>
      <path id="타원_135" data-name="타원 135" d="M6,1a5,5,0,1,0,5,5A5.006,5.006,0,0,0,6,1M6,0A6,6,0,1,1,0,6,6,6,0,0,1,6,0Z" transform="translate(20.01 20)" fill="url(#linear-gradient)"/>
      <circle id="타원_136" data-name="타원 136" cx="1.5" cy="1.5" r="1.5" transform="translate(30.01 17)" fill="url(#linear-gradient)"/>
    </g>
  </g>
</svg>
