<?xml version="1.0" encoding="UTF-8"?><svg id="_레이어_4" xmlns="http://www.w3.org/2000/svg" viewBox="0 0 28 28"><defs><style>.cls-1{fill:#fff;}</style></defs><path class="cls-1" d="m14,1C6.83,1,1,6.83,1,14s5.83,13,13,13,13-5.83,13-13S21.17,1,14,1ZM4.13,7.87c1.31-.14,2.62-.25,3.91-.33-.53,1.8-.84,3.88-.87,6.11H2.39c.06-2.12.69-4.09,1.74-5.78Zm9.19,5.78h-4.78c.03-2.28.39-4.41.97-6.2,1.31-.06,2.57-.1,3.81-.11v6.31Zm0,1.37v6.31c-1.19,0-2.38-.04-3.56-.1-.67-1.75-1.1-3.89-1.2-6.21h4.76Zm0,7.67v2.82c-1.11-.31-2.12-1.36-2.93-2.9.98.04,1.96.06,2.93.07Zm1.37,0c.98,0,1.95-.03,2.93-.07-.81,1.54-1.82,2.59-2.93,2.9v-2.82Zm3.56-1.46c-1.18.06-2.37.09-3.56.1v-6.31h4.76c-.1,2.32-.54,4.46-1.2,6.21Zm-3.56-7.58v-6.31c1.24,0,2.49.05,3.81.11.59,1.79.94,3.93.97,6.2h-4.78Zm0-7.68v-3.5c1.27.35,2.41,1.67,3.27,3.59-1.12-.05-2.2-.08-3.27-.08Zm-1.37-3.5v3.5c-1.07,0-2.15.04-3.27.08.85-1.92,2-3.23,3.27-3.59Zm-6.13,12.55c.09,2.27.47,4.35,1.07,6.13-1.19-.07-2.39-.17-3.63-.29-1.22-1.67-2.02-3.66-2.21-5.83h4.76Zm1.63,7.53c.44.97.95,1.8,1.53,2.48-1.68-.56-3.18-1.48-4.42-2.68.97.08,1.94.15,2.89.21Zm10.36,0c.96-.05,1.92-.12,2.89-.21-1.24,1.2-2.75,2.13-4.42,2.68.57-.68,1.09-1.51,1.53-2.48Zm4.19-1.7c-1.24.13-2.44.22-3.63.29.61-1.77.99-3.86,1.07-6.13h4.76c-.19,2.17-.98,4.17-2.21,5.83Zm-2.54-7.2c-.03-2.24-.34-4.31-.87-6.11,1.29.08,2.59.19,3.91.33,1.05,1.69,1.68,3.66,1.74,5.78h-4.78Zm1.95-7.26c-1.11-.1-2.21-.19-3.3-.25-.5-1.26-1.12-2.34-1.82-3.18,2.01.67,3.77,1.87,5.13,3.43Zm-12.43-3.43c-.71.84-1.33,1.91-1.82,3.18-1.09.06-2.19.15-3.3.25,1.36-1.56,3.12-2.76,5.13-3.43Z"/></svg>