<?xml version="1.0" encoding="utf-8"?>
<!-- Generator: Adobe Illustrator 26.5.0, SVG Export Plug-In . SVG Version: 6.00 Build 0)  -->
<svg version="1.1" id="Layer_1" xmlns="http://www.w3.org/2000/svg" xmlns:xlink="http://www.w3.org/1999/xlink" x="0px" y="0px"
	 viewBox="0 0 675.63 132.9" style="enable-background:new 0 0 675.63 132.9;" xml:space="preserve">
<style type="text/css">
	.st0{fill:#FFFFFF;}
</style>
<g>
	<path class="st0" d="M291.75,70.91c-2.13-3.31-4.82-5.81-8.04-7.5c-3.22-1.68-7.06-3.16-11.53-4.43l-7.24-2.01
		c-2.94-0.83-5.14-1.58-6.61-2.21c-1.47-0.64-2.55-1.42-3.24-2.38c-0.72-0.94-1.06-2.22-1.06-3.84c0-2.39,0.74-4.22,2.21-5.48
		c1.46-1.27,4.06-1.9,7.76-1.9c0.2,0,0.41-0.04,0.63-0.05h24.35V25.13h-24.97c-9.1,0-16.14,2.14-21.14,6.43
		c-5,4.3-7.5,10.55-7.5,18.78c0,5,1.09,9.07,3.25,12.24c2.16,3.16,4.78,5.54,7.86,7.12c3.08,1.58,6.72,2.97,10.92,4.16l7.13,2
		c4.4,1.2,7.46,2.37,9.18,3.53c1.71,1.16,2.57,2.9,2.57,5.23c0,2.31-0.96,4.17-2.88,5.58c-1.93,1.41-4.96,2.26-9.08,2.26h-27.17
		v15.89h27.17c9.51,0,16.98-2.2,22.41-6.6c5.42-4.39,8.16-10.42,8.23-18.08C294.95,78.46,293.88,74.21,291.75,70.91z"/>
	<g>
		<path class="st0" d="M331.57,44.48c3.53-2.21,7.57-3.32,12.12-3.32c0.13,0,0.26-0.04,0.39-0.05h16.3V25.13h-16.74v0.01
			c-0.17,0-0.3-0.01-0.47-0.01c-9.02,0-16.68,1.82-22.97,5.48c-6.29,3.66-11.01,8.63-14.16,14.93c-3.15,6.3-4.72,13.38-4.72,21.25
			c0,12.94,3.48,23.1,10.44,30.48c6.96,7.39,17.43,11.08,31.42,11.08h17.21V92.32h-17.21c-7.13,0-12.71-2.34-16.73-7.02
			c-4.02-4.67-6.03-10.88-6.03-18.62c0-4.85,0.98-9.21,2.94-13.08C325.29,49.73,328.04,46.7,331.57,44.48z"/>
		<g>
			<path class="st0" d="M465.14,42.15l21.9,12.24v24.48l-21.89,12.22l-21.9-12.23V54.39L465.14,42.15 M465.14,22.48L426.7,44.55
				v44.15l38.44,22.08L503.6,88.7V44.55L465.14,22.48L465.14,22.48z"/>
			<path class="st0" d="M524.09,97.85c-5.81-5.74-8.71-13.91-8.71-24.5V25.72h19.02v47.64c0,5.68,1.33,9.96,3.97,12.82
				c2.63,2.87,6.6,4.31,11.88,4.31c5.28,0,9.25-1.44,11.9-4.31c2.64-2.87,3.96-7.14,3.96-12.82V25.72h19.03v47.64
				c0,10.58-2.89,18.75-8.67,24.5c-5.78,5.74-14.51,8.62-26.22,8.62C538.63,106.47,529.91,103.6,524.09,97.85z"/>
			<path class="st0" d="M24.56,57.01L7.37,106.46H26.4l2.98-8.59h-0.01l-12.11-7.6H32h30.97l5.6,16.19H87.6L59.48,25.84h-24.1
				L24.56,57.01 M37.5,74.08l9.94-29l10.04,29H37.5z"/>
			<path class="st0" d="M142.25,75.43c10.64-3.43,15.96-11.45,15.96-23.57c0-17.03-10.19-25.89-30.55-25.89H95.21v80.5h19.03V85
				l-0.03,0.02l-12.11-7.59h12.11h0.03h8.87l17.13,29.03h21.13L142.25,75.43z M127.66,61.45h-13.42V41.94h13.42
				c3.88,0,6.97,0.77,8.8,2.32c1.83,1.53,2.75,4.3,2.75,7.6C139.21,58.1,135.2,61.45,127.66,61.45z"/>
			<polygon class="st0" points="165.65,25.96 165.65,42.15 187.53,42.15 187.53,106.46 206.56,106.46 206.56,49.72 206.5,49.72 
				194.4,42.12 206.5,42.12 228.43,42.15 228.43,25.96 			"/>
			<polygon class="st0" points="391.19,90.27 379.03,90.26 391.14,82.63 391.19,82.65 391.19,25.96 372.15,25.96 372.15,106.46 
				420.35,106.46 420.35,90.27 			"/>
			<path class="st0" d="M658.21,36.1c-7.44-6.76-18.48-10.14-33.14-10.14h-28.22v80.5h28.22c14.73,0,25.79-3.33,33.19-9.98
				c7.4-6.65,11.1-16.92,11.1-30.1C669.36,53.27,665.65,42.86,658.21,36.1z M644.1,84.75c-4.01,3.83-10.36,5.73-19.02,5.73h-9.2v-41
				v0.01l-12.11-7.6h12.11l9.2,0.04c8.53,0,14.84,1.89,18.91,5.67c4.09,3.78,6.14,10.25,6.14,18.45
				C650.13,74.47,648.12,80.94,644.1,84.75z"/>
		</g>
	</g>
</g>
</svg>
