<svg xmlns="http://www.w3.org/2000/svg" width="50" height="50" viewBox="0 0 50 50">
  <g id="그룹_31905" data-name="그룹 31905" transform="translate(-218 -484)">
    <g id="그룹_31751" data-name="그룹 31751" transform="translate(218 483)">
      <path id="타원_134" data-name="타원 134" d="M25,1a24.007,24.007,0,0,0-9.342,46.114A24.006,24.006,0,0,0,34.342,2.886,23.849,23.849,0,0,0,25,1m0-1A25,25,0,1,1,0,25,25,25,0,0,1,25,0Z" transform="translate(0 1)" fill="#fff"/>
      <path id="twitter-brands" d="M23.068,47.323l-.4,1.259a5.116,5.116,0,0,1-.8,1.533q.381-.127.761-.291l1.592-.686-.982,1.429a10.506,10.506,0,0,1-2.247,2.377c0,.124,0,.247,0,.367a14.275,14.275,0,0,1-3.554,9.305A13.089,13.089,0,0,1,13.1,65.865a13.976,13.976,0,0,1-5.919,1.256,13.745,13.745,0,0,1-7.454-2.18l.328-.917a9.1,9.1,0,0,0,1.072.055,8.838,8.838,0,0,0,4.476-1.2,5.176,5.176,0,0,1-3.518-3.393l-.245-.766.684.1a5.167,5.167,0,0,1-2.1-4.167v-.91l.744.415q.113.063.23.119A5.173,5.173,0,0,1,.456,51.3a5.119,5.119,0,0,1,.705-2.613l.364-.625.456.562a12.824,12.824,0,0,0,8.668,4.664c-.018-.178-.026-.354-.026-.525a5.183,5.183,0,0,1,8.76-3.746A8.767,8.767,0,0,0,21.933,48ZM19.043,50.1l-.188-.2A4.14,4.14,0,0,0,15.8,48.582a4.183,4.183,0,0,0-4.178,4.178,4.78,4.78,0,0,0,.105.97l.132.635-.648-.034a13.839,13.839,0,0,1-9.5-4.487,4.192,4.192,0,0,0,1.6,4.934l1.474.982-1.77-.067A5.214,5.214,0,0,1,1.493,55.4a4.176,4.176,0,0,0,3.284,3.358l.026.974a5.412,5.412,0,0,1-1.357.175h-.1a4.2,4.2,0,0,0,3.6,2.173l1.4.03-1.1.864A9.8,9.8,0,0,1,2.019,65.04a12.8,12.8,0,0,0,5.165,1.081,12.265,12.265,0,0,0,9.506-4.167,13.262,13.262,0,0,0,3.3-8.644c0-.2,0-.388-.013-.573l-.02-.276.224-.163a9.429,9.429,0,0,0,1.152-.993,9.253,9.253,0,0,1-1.151.2l-.31-.926a4.2,4.2,0,0,0,1.168-1.032,9.719,9.719,0,0,1-1.73.5Z" transform="translate(13.587 -31.321)" fill="#fff"/>
    </g>
  </g>
</svg>
